<svg xmlns="http://www.w3.org/2000/svg" xmlns:xlink="http://www.w3.org/1999/xlink" width="1360" zoomAndPan="magnify" viewBox="0 0 1020 974.999993" height="1300" preserveAspectRatio="xMidYMid meet" version="1.0"><path fill="#4cf4e0" d="M 1.046875 633.089844 L 20.003906 638.765625 C 38.847656 644.441406 76.761719 655.796875 114.5625 661.246094 C 152.367188 666.808594 190.28125 666.355469 228.082031 679.867188 C 265.882812 693.261719 303.796875 720.511719 341.597656 728.117188 C 379.398438 735.609375 417.316406 723.574219 455.117188 710.859375 C 492.917969 698.144531 530.832031 684.972656 568.632812 689.515625 C 606.433594 694.058594 644.351562 716.308594 682.152344 700.640625 C 719.953125 684.972656 757.867188 631.160156 795.667969 624.007812 C 833.46875 616.855469 871.382812 656.136719 909.1875 662.835938 C 946.988281 669.421875 984.902344 643.308594 1003.746094 630.25 L 1022.703125 617.195312 L 1022.703125 991.855469 L 1003.746094 991.855469 C 984.902344 991.855469 946.988281 991.855469 909.1875 991.855469 C 871.382812 991.855469 833.46875 991.855469 795.667969 991.855469 C 757.867188 991.855469 719.953125 991.855469 682.152344 991.855469 C 644.351562 991.855469 606.433594 991.855469 568.632812 991.855469 C 530.832031 991.855469 492.917969 991.855469 455.117188 991.855469 C 417.316406 991.855469 379.398438 991.855469 341.597656 991.855469 C 303.796875 991.855469 265.882812 991.855469 228.082031 991.855469 C 190.28125 991.855469 152.367188 991.855469 114.5625 991.855469 C 76.761719 991.855469 38.847656 991.855469 20.003906 991.855469 L 1.046875 991.855469 Z M 1.046875 633.089844 " fill-opacity="1" fill-rule="nonzero"/><path fill="#00d2e6" d="M 1.046875 802.253906 L 20.003906 781.476562 C 38.847656 760.585938 76.761719 719.035156 114.5625 702.34375 C 152.367188 685.65625 190.28125 694.058594 228.082031 716.765625 C 265.882812 739.46875 303.796875 776.480469 341.597656 796.578125 C 379.398438 816.671875 417.316406 819.625 455.117188 808.839844 C 492.917969 798.054688 530.832031 773.53125 568.632812 747.417969 C 606.433594 721.304688 644.351562 693.601562 682.152344 691.785156 C 719.953125 689.855469 757.867188 713.699219 795.667969 732.203125 C 833.46875 750.824219 871.382812 763.992188 909.1875 752.074219 C 946.988281 740.152344 984.902344 703.140625 1003.746094 684.519531 L 1022.703125 666.015625 L 1022.703125 991.855469 L 1003.746094 991.855469 C 984.902344 991.855469 946.988281 991.855469 909.1875 991.855469 C 871.382812 991.855469 833.46875 991.855469 795.667969 991.855469 C 757.867188 991.855469 719.953125 991.855469 682.152344 991.855469 C 644.351562 991.855469 606.433594 991.855469 568.632812 991.855469 C 530.832031 991.855469 492.917969 991.855469 455.117188 991.855469 C 417.316406 991.855469 379.398438 991.855469 341.597656 991.855469 C 303.796875 991.855469 265.882812 991.855469 228.082031 991.855469 C 190.28125 991.855469 152.367188 991.855469 114.5625 991.855469 C 76.761719 991.855469 38.847656 991.855469 20.003906 991.855469 L 1.046875 991.855469 Z M 1.046875 802.253906 " fill-opacity="1" fill-rule="nonzero"/><path fill="#00addc" d="M 1.046875 876.050781 L 20.003906 857.316406 C 38.847656 838.585938 76.761719 801.117188 114.5625 793.171875 C 152.367188 785.222656 190.28125 806.796875 228.082031 813.378906 C 265.882812 820.078125 303.796875 811.675781 341.597656 820.417969 C 379.398438 829.160156 417.316406 854.820312 455.117188 864.699219 C 492.917969 874.574219 530.832031 868.445312 568.632812 856.976562 C 606.433594 845.398438 644.351562 828.367188 682.152344 830.410156 C 719.953125 832.566406 757.867188 853.683594 795.667969 862.652344 C 833.46875 871.507812 871.382812 868.101562 909.1875 864.355469 C 946.988281 860.496094 984.902344 856.410156 1003.746094 854.253906 L 1022.703125 852.207031 L 1022.703125 991.855469 L 1003.746094 991.855469 C 984.902344 991.855469 946.988281 991.855469 909.1875 991.855469 C 871.382812 991.855469 833.46875 991.855469 795.667969 991.855469 C 757.867188 991.855469 719.953125 991.855469 682.152344 991.855469 C 644.351562 991.855469 606.433594 991.855469 568.632812 991.855469 C 530.832031 991.855469 492.917969 991.855469 455.117188 991.855469 C 417.316406 991.855469 379.398438 991.855469 341.597656 991.855469 C 303.796875 991.855469 265.882812 991.855469 228.082031 991.855469 C 190.28125 991.855469 152.367188 991.855469 114.5625 991.855469 C 76.761719 991.855469 38.847656 991.855469 20.003906 991.855469 L 1.046875 991.855469 Z M 1.046875 876.050781 " fill-opacity="1" fill-rule="nonzero"/><path fill="#2487c7" d="M 1.046875 865.832031 L 20.003906 864.46875 C 38.847656 863.222656 76.761719 860.496094 114.5625 862.425781 C 152.367188 864.355469 190.28125 870.714844 228.082031 881.386719 C 265.882812 891.945312 303.796875 906.703125 341.597656 909.316406 C 379.398438 912.039062 417.316406 902.503906 455.117188 904.09375 C 492.917969 905.570312 530.832031 918.058594 568.632812 916.695312 C 606.433594 915.445312 644.351562 900.234375 682.152344 885.132812 C 719.953125 870.035156 757.867188 854.820312 795.667969 858.113281 C 833.46875 861.292969 871.382812 882.863281 909.1875 895.125 C 946.988281 907.5 984.902344 910.453125 1003.746094 912.039062 L 1022.703125 913.515625 L 1022.703125 991.855469 L 1003.746094 991.855469 C 984.902344 991.855469 946.988281 991.855469 909.1875 991.855469 C 871.382812 991.855469 833.46875 991.855469 795.667969 991.855469 C 757.867188 991.855469 719.953125 991.855469 682.152344 991.855469 C 644.351562 991.855469 606.433594 991.855469 568.632812 991.855469 C 530.832031 991.855469 492.917969 991.855469 455.117188 991.855469 C 417.316406 991.855469 379.398438 991.855469 341.597656 991.855469 C 303.796875 991.855469 265.882812 991.855469 228.082031 991.855469 C 190.28125 991.855469 152.367188 991.855469 114.5625 991.855469 C 76.761719 991.855469 38.847656 991.855469 20.003906 991.855469 L 1.046875 991.855469 Z M 1.046875 865.832031 " fill-opacity="1" fill-rule="nonzero"/></svg>